<svg height='40px' width='40px'  fill="#FF6868" xmlns="http://www.w3.org/2000/svg" xmlns:xlink="http://www.w3.org/1999/xlink" version="1.1" x="0px" y="0px" viewBox="0 0 96 96" enable-background="new 0 0 96 96" xml:space="preserve"><g><path d="M48,26.691c-5.639,0-10.226,4.586-10.226,10.225S42.361,47.141,48,47.141c5.64,0,10.227-4.588,10.227-10.225   C58.227,31.278,53.64,26.691,48,26.691z"></path><path d="M48,8.701c-15.557,0-28.213,12.657-28.213,28.214c0,4.394,1.015,8.641,3.016,12.62l0.041,0.082L48,87.299l25.197-37.764   c2.001-3.976,3.016-8.222,3.016-12.62C76.213,21.358,63.557,8.701,48,8.701z M48,52.752c-8.732,0-15.838-7.105-15.838-15.837   S39.268,21.079,48,21.079c8.732,0,15.839,7.105,15.839,15.837S56.732,52.752,48,52.752z"></path></g></svg>