<?xml version="1.0" encoding="UTF-8"?>
<svg width="512pt" height="512pt" version="1.1" viewBox="0 0 512 512" xmlns="http://www.w3.org/2000/svg">
 <g>
  <path d="m448 192h-96c-12.719 0.039062-24.906 5.1055-33.898 14.102-8.9961 8.9922-14.062 21.18-14.102 33.898v32c0.039062 12.719 5.1055 24.906 14.102 33.898 8.9922 8.9961 21.18 14.062 33.898 14.102h96c12.719-0.039062 24.906-5.1055 33.898-14.102 8.9961-8.9922 14.062-21.18 14.102-33.898v-32c-0.039062-12.719-5.1055-24.906-14.102-33.898-8.9922-8.9961-21.18-14.062-33.898-14.102zm-48 80h-16c-5.7148 0-11-3.0508-13.855-8-2.8594-4.9492-2.8594-11.051 0-16 2.8555-4.9492 8.1406-8 13.855-8h16c5.7148 0 11 3.0508 13.855 8 2.8594 4.9492 2.8594 11.051 0 16-2.8555 4.9492-8.1406 8-13.855 8z"/>
  <path d="m160 0h-16c-21.215 0.0078125-41.559 8.4375-56.559 23.441-15.004 15-23.434 35.344-23.441 56.559v352c0.007812 21.215 8.4375 41.559 23.441 56.559 15 15.004 35.344 23.434 56.559 23.441h16z"/>
  <path d="m336 80c2.4844 0 4.9336 0.57812 7.1562 1.6875l8.8438 4.4219v-86.109h-32v86.109l8.8438-4.4219c2.2227-1.1094 4.6719-1.6875 7.1562-1.6875z"/>
  <path d="m352 160h96v-112c-0.039062-12.719-5.1055-24.906-14.102-33.898-8.9922-8.9961-21.18-14.062-33.898-14.102h-16v112c0 5.5469-2.8711 10.695-7.5898 13.613-4.7148 2.9141-10.605 3.1797-15.566 0.69922l-24.844-12.422-24.844 12.422c-4.9609 2.4805-10.852 2.2148-15.566-0.69922-4.7188-2.918-7.5898-8.0664-7.5898-13.613v-112h-96v512h208c12.719-0.039062 24.906-5.1055 33.898-14.102 8.9961-8.9922 14.062-21.18 14.102-33.898v-112h-96c-21.215-0.007812-41.559-8.4375-56.559-23.441-15.004-15-23.434-35.344-23.441-56.559v-32c0.007812-21.215 8.4375-41.559 23.441-56.559 15-15.004 35.344-23.434 56.559-23.441z"/>
 </g>
</svg>
