<?xml version="1.0" encoding="UTF-8"?>
<svg width="512pt" height="512pt" version="1.1" viewBox="0 0 512 512" xmlns="http://www.w3.org/2000/svg">
 <path d="m398.63 226.74v51.199c0 19.016-14.555 34.668-33.133 36.352-2.9258 54.93-39.645 98.961-85.43 102.4-3.8047 8.707-14.633 14.852-27.723 14.852-16.383 0-29.258-9.582-29.258-21.941 0-12.289 12.875-21.941 29.258-21.941 12.801 0 23.48 5.9258 27.43 14.336 37.887-3.293 68.168-40.672 71.094-87.48h-25.383c-4.0234 0-7.3125-3.2188-7.3125-7.3125v-109.72c0-4.0234 3.293-7.3125 7.3125-7.3125h28.965c-3.8008-53.027-48.125-95.086-102.11-95.086s-98.305 42.059-102.11 95.086h36.281c4.0234 0 7.3125 3.293 7.3125 7.3125v109.71c0 4.0938-3.293 7.3125-7.3125 7.3125h-36.57c-20.188 0-36.57-16.383-36.57-36.57v-51.199c0-14.992 9.0703-27.941 22.016-33.574 2.3359-62.535 53.902-112.71 116.95-112.71 62.246 0 113.3 48.934 116.81 110.37 16.824 3.3672 29.477 18.215 29.477 35.914z"/>
</svg>
