<?xml version="1.0" encoding="UTF-8"?>
<svg width="1200pt" height="1200pt" version="1.1" viewBox="0 0 1200 1200" xmlns="http://www.w3.org/2000/svg">
 <g fill="#2095f3">
  <path d="m231.6 723.6h153.6c14.398 0 26.398-12 26.398-26.398v-106.8c0-14.398-12-26.398-26.398-26.398l-153.6-0.003906c-14.398 0-26.398 12-26.398 26.398v106.8c1.1953 14.402 13.195 26.402 26.398 26.402z"/>
  <path d="m1050 178.8h-130.8v-79.199c0-24-19.199-43.199-43.199-43.199h-81.602c-24 0-43.199 19.199-43.199 43.199v79.199h-303.6v-79.199c0-24-19.199-43.199-43.199-43.199h-81.602c-24 0-43.199 19.199-43.199 43.199v79.199h-129.6c-66 0-120 54-120 120v723.6c0 66 54 120 120 120h900c66 0 120-54 120-120v-723.6c0-66-54-120-120-120zm39.602 843.6c0 21.602-18 39.602-39.602 39.602h-900c-21.602 0-39.602-18-39.602-39.602v-553.2h980.4l0.003906 553.2z"/>
  <path d="m523.2 723.6h153.6c14.398 0 26.398-12 26.398-26.398v-106.8c0-14.398-12-26.398-26.398-26.398l-153.6-0.003906c-14.398 0-26.398 12-26.398 26.398v106.8c0 14.402 12 26.402 26.398 26.402z"/>
  <path d="m814.8 723.6h153.6c14.398 0 26.398-12 26.398-26.398v-106.8c0-14.398-12-26.398-26.398-26.398l-153.6-0.003906c-14.398 0-26.398 12-26.398 26.398v106.8c-0.003906 14.402 11.996 26.402 26.398 26.402z"/>
  <path d="m231.6 967.2h153.6c14.398 0 26.398-12 26.398-26.398v-106.8c0-14.398-12-26.398-26.398-26.398h-153.6c-14.398 0-26.398 12-26.398 26.398v106.8c1.1953 14.398 13.195 26.398 26.398 26.398z"/>
  <path d="m523.2 967.2h153.6c14.398 0 26.398-12 26.398-26.398v-106.8c0-14.398-12-26.398-26.398-26.398h-153.6c-14.398 0-26.398 12-26.398 26.398v106.8c0 14.398 12 26.398 26.398 26.398z"/>
  <path d="m814.8 967.2h153.6c14.398 0 26.398-12 26.398-26.398v-106.8c0-14.398-12-26.398-26.398-26.398h-153.6c-14.398 0-26.398 12-26.398 26.398v106.8c-0.003906 14.398 11.996 26.398 26.398 26.398z"/>
 </g>
</svg>
