<svg xmlns="http://www.w3.org/2000/svg" xmlns:xlink="http://www.w3.org/1999/xlink" version="1.1" x="0px" y="0px" viewBox="0 0 67 67" enable-background="new 0 0 67 67" xml:space="preserve"><g><g><path d="M48,29c0.3,0.3,0.8,0.5,1.6,0.8v-3.7c-0.6,0.1-1.1,0.3-1.5,0.6C47.4,27.3,47.5,28.5,48,29z"></path><path d="M52.7,33.6c-0.3-0.3-0.9-0.6-1.7-0.8v3.8c0.7-0.1,1.2-0.3,1.6-0.6C53.5,35.3,53.3,34.1,52.7,33.6z"></path><path d="M66.4,29.9c-0.9-9.2-9.1-15.6-18-14.6c-0.7,0.1-1.3,0.2-2,0.3c0.1,3.4-0.3,7.5-2.9,9.9c-0.9,3.6-2.6,7.2-4.8,10v0.7h5.9    l1.3-1.6c1.2,1,2.4,1.7,3.7,1.8v-4.1c-1.6-0.4-2.8-0.9-3.5-1.5c-1.4-1.2-1.7-4.1,0.2-5.8c0.8-0.8,2-1.2,3.3-1.3v-1.1H51v1.1    c1.6,0.1,3,0.7,4.4,1.6l-1.4,2c-0.9-0.7-2-1.1-3-1.2v4h0.1c1.6,0.4,2.8,0.9,3.6,1.5c1.5,1.2,1.7,4.2-0.2,5.9    c-0.4,0.3-0.8,0.6-1.2,0.8c2.5,1.7,4.4,4.3,5.2,7.4C63.9,42.5,67.1,36.4,66.4,29.9z"></path><path d="M46.3,38.3h-7.6v0.3c0,5.6-4.5,10.1-10.1,10.1s-10.1-4.5-10.1-10.1v-0.3H11C5.2,38.3,0.5,43,0.5,48.8v16.6    c0,0.5,0.5,1,1,1h7.8V54.9c0-0.5,0.4-1,1-1c0.5,0,1,0.5,1,1v11.5H46V54.9c0-0.5,0.4-1,1-1c0.5,0,1,0.5,1,1v11.5h7.8    c0.5,0,1-0.5,1-1V48.8C56.8,43,52.1,38.3,46.3,38.3z"></path><path d="M15.5,24.5c0.9,3.9,2.7,7.8,5.1,10.5v3.6c0,4.5,3.6,8.1,8.1,8.1c4.5,0,8.1-3.6,8.1-8.1v-3.7c0,0,0,0,0,0    c2.4-2.9,4.2-6.8,5-10.4c4-3,2.4-11.3,2.3-13.9c-0.2-6.4-7.7-9.9-15-9.9c-3.5,0-8.2,1.2-9.8,4.3c-2.2,0.6-6.2,2.5-6.7,8.1    C12.5,14,11.3,22.2,15.5,24.5z M34.8,38.6c0,3.4-2.7,6.1-6.1,6.1s-6.1-2.7-6.1-6.1V37c0,0,0.1,0,0.1,0.1c4.2,3.3,8.5,2.9,12.1-0.2    V38.6z M21.3,12.9c5.3,3.9,14.4,0.9,16.1,1.5c2.4,0.8,2.9,4.4,2.9,7c-0.2,4.1-2.4,9.6-5.6,13c-3.8,3.6-7.7,4.8-12.2-0.2    c0,0,0,0,0,0c-2.6-2.9-4.7-7.3-5.3-11.6C17.3,17.2,19,18.4,21.3,12.9z"></path></g></g></svg>