<?xml version="1.0" encoding="UTF-8"?>
<svg width="512pt" height="512pt" version="1.1" viewBox="0 0 512 512" xmlns="http://www.w3.org/2000/svg">
 <path d="m473.6 127.15v288.43c0 4.2656-3.4141 6.8281-6.8281 6.8281l-421.55-0.003906c-3.4141 0.85156-6.8281-2.5586-6.8281-6.8281v-320c0-4.2656 3.4141-6.8281 6.8281-6.8281h70.828c2.5586 0 5.9727 1.707 6.8281 4.2656l29.867 41.812 6.8281 8.5352 5.9727 7.6797h297.81v-19.625h-79.363c-0.85156 0-0.85156 0-0.85156 0.85156l-14.508 6.8281-6.8281-7.6797 17.066-7.6797c1.707-1.707 4.2656-1.707 6.8281-1.707h82.773c0.85156-1.707 5.1211 1.707 5.1211 5.1211zm-251.73-34.137c-1.707-2.5586-4.2656-4.2656-6.8281-4.2656h-75.094c-2.5586 0-4.2656 3.4141-2.5586 5.9727l34.133 46.078h86.188zm98.984 0c-1.707-2.5586-4.2656-4.2656-6.8281-4.2656h-75.09c-2.5586 0-4.2656 3.4141-2.5586 5.9727l34.133 46.078h86.188z" fill="#43aafd"/>
</svg>
