<svg height='100px' width='100px'  fill="#13b126" xmlns="http://www.w3.org/2000/svg" xmlns:xlink="http://www.w3.org/1999/xlink" version="1.1" x="0px" y="0px" viewBox="0 0 100 100" style="enable-background:new 0 0 100 100;" xml:space="preserve"><g><path d="M81.2,34.25v-8.39L42.6,11.33L4,25.86v48.28l38.6,14.53l38.6-14.53v-8.39C89.45,65.23,96,58.37,96,50   S89.45,34.77,81.2,34.25z M41.6,58.6v2.14v25.42L7.84,73.45L6,72.76V72V28l35.6,13.4V58.6z M7.84,26.55L42.6,13.47l34.76,13.09   L42.6,39.64L7.84,26.55z M79.2,72v0.75l-1.84,0.69L43.6,86.16V60.74V58.6V41.4L79.2,28v6.26c-8.24,0.52-14.8,7.37-14.8,15.75   s6.55,15.23,14.8,15.75V72z M81.2,63.75c-0.33,0.02-0.66,0.05-1,0.05s-0.67-0.03-1-0.05c-7.14-0.52-12.8-6.48-12.8-13.75   s5.66-13.23,12.8-13.75c0.33-0.02,0.66-0.05,1-0.05s0.67,0.03,1,0.05C88.34,36.77,94,42.73,94,50S88.34,63.23,81.2,63.75z"></path><path d="M88.53,42.87L81.2,50.2l-2,2L76.4,55l-4.53-4.53c-0.39-0.39-1.02-0.39-1.41,0s-0.39,1.02,0,1.41l5.94,5.94l2.8-2.8l2-2   l8.74-8.74c0.39-0.39,0.39-1.02,0-1.41S88.92,42.48,88.53,42.87z"></path></g></svg>