<svg height='100px' width='100px'  fill="#d44141" xmlns="http://www.w3.org/2000/svg" xmlns:xlink="http://www.w3.org/1999/xlink" version="1.1" x="0px" y="0px" viewBox="0 0 100 100" style="enable-background:new 0 0 100 100;" xml:space="preserve"><g><path d="M87,43.2c-0.39-0.39-1.02-0.39-1.41,0l-5.38,5.38l-5.38-5.38c-0.39-0.39-1.02-0.39-1.41,0s-0.39,1.02,0,1.41L78.79,50   l-5.38,5.38c-0.39,0.39-0.39,1.02,0,1.41c0.2,0.2,0.45,0.29,0.71,0.29s0.51-0.1,0.71-0.29l5.38-5.38l5.38,5.38   c0.2,0.2,0.45,0.29,0.71,0.29s0.51-0.1,0.71-0.29c0.39-0.39,0.39-1.02,0-1.41L81.62,50L87,44.62C87.39,44.23,87.39,43.6,87,43.2z"></path><path d="M81.2,34.25v-8.39L42.6,11.33L4,25.86v48.28l38.6,14.53l38.6-14.53v-8.39C89.45,65.23,96,58.37,96,50   S89.45,34.77,81.2,34.25z M42.6,13.47l34.76,13.09L42.6,39.64L7.84,26.55L42.6,13.47z M6,72.76V72V28l35.6,13.4v17.2v2.14v25.42   L7.84,73.45L6,72.76z M79.2,72.76l-1.84,0.69L43.6,86.16V60.74V58.6V41.4L79.2,28v6.26c-8.24,0.52-14.8,7.37-14.8,15.75   s6.55,15.23,14.8,15.75V72V72.76z M81.2,63.75c-0.33,0.02-0.66,0.05-1,0.05s-0.67-0.03-1-0.05c-7.14-0.52-12.8-6.48-12.8-13.75   s5.66-13.23,12.8-13.75c0.33-0.02,0.66-0.05,1-0.05s0.67,0.03,1,0.05C88.34,36.77,94,42.73,94,50S88.34,63.23,81.2,63.75z"></path></g></svg>