<?xml version="1.0" encoding="UTF-8"?>
<svg width="512pt" height="512pt" version="1.1" viewBox="0 0 512 512" xmlns="http://www.w3.org/2000/svg">
 <path d="m488.6 246.99c-0.007812-12.02-4.2422-23.652-11.965-32.867-7.7227-9.2109-18.441-15.41-30.273-17.512-1.1562-49.711-21.711-96.996-57.277-131.75-35.562-34.746-83.312-54.203-133.04-54.203-49.723 0-97.473 19.457-133.04 54.203-35.566 34.75-56.121 82.035-57.273 131.75-11.836 2.1016-22.555 8.3008-30.277 17.512-7.7227 9.2148-11.957 20.848-11.965 32.867v56.32c0 13.578 5.3945 26.602 14.996 36.203 9.6016 9.6016 22.625 14.996 36.203 14.996h27.344c1.9102 44.578 23.051 86.141 57.949 113.94 34.902 27.801 80.141 39.109 124.02 31.004 43.879-8.1055 82.09-34.828 104.75-73.266h17.973c13.578 0 26.602-5.3945 36.203-14.996 9.6016-9.6016 14.996-22.625 14.996-36.203v-24.73c9.1172-3.9766 16.879-10.527 22.336-18.848 5.4531-8.3203 8.3672-18.051 8.3828-28zm-232.6-216.83c44.305 0.050781 86.84 17.387 118.56 48.32 31.715 30.934 50.113 73.023 51.273 117.31h-5.4805c-8.5195-26.562-23.246-50.711-42.957-70.453-32.203-31.691-75.316-48.074-124.93-47.203-35.543 0.91406-69.953 12.688-98.602 33.742-28.648 21.051-50.164 50.371-61.656 84.016h-6.043c1.1367-44.305 19.52-86.422 51.238-117.38 31.723-30.957 74.273-48.305 118.59-48.359zm-150.53 247.91c-1.5938-3.3242-2.4141-6.9648-2.4062-10.648v-14.695c0-83.609 67.176-152.73 149.71-154.11 43.98-0.5625 81.922 13.566 110.29 41.32 29.406 29.699 45.957 69.77 46.082 111.57v15.922c0.007813 3.6836-0.81641 7.3242-2.4062 10.648-4.6602-13.016-13.457-24.145-25.039-31.691l-120.11-78.285c-3.4062-2.2266-7.8086-2.2266-11.215 0l-119.81 78.285c-11.605 7.5352-20.418 18.668-25.086 31.691zm-61.441 25.344v-56.32c0-8.1445 3.2383-15.961 9-21.723 5.7578-5.7578 13.574-8.9961 21.723-8.9961h11.828-0.003906c-2.5742 11.98-3.875 24.199-3.8906 36.453v14.695c-0.03125 13.676 6.1953 26.613 16.898 35.125l2.3047 1.8438v29.695h-27.293c-8.1562 0-15.977-3.2461-21.738-9.0156-5.7656-5.7734-8.9961-13.602-8.9805-21.758zm211.97 178.43c-35.445-0.042969-69.434-14.137-94.5-39.195-25.07-25.062-39.18-59.043-39.234-94.488v-48.641c0.011719-14.465 7.332-27.949 19.457-35.84l114.28-74.805 114.28 74.652c12.121 7.8984 19.438 21.375 19.457 35.84v48.793c0.015625 20.012-4.4844 39.77-13.16 57.805h-59.699v-24.523c0-2.7188-1.0781-5.3203-2.9961-7.2422-1.9219-1.9219-4.5273-3-7.2422-3h-82.434c-5.6523 0-10.238 4.5859-10.238 10.242v63.641c0 2.7148 1.0781 5.3203 3 7.2422 1.918 1.918 4.5234 2.9961 7.2383 2.9961h82.434c2.7148 0 5.3203-1.0781 7.2422-2.9961 1.918-1.9219 2.9961-4.5273 2.9961-7.2422v-18.688h47.465c-25.113 34.809-65.418 55.438-108.34 55.449zm40.398-90.164v43.16h-61.953v-43.16zm141.11-16.488v0.003906c0 8.1445-3.2383 15.961-8.9961 21.719-5.7617 5.7617-13.578 9-21.723 9h-7.8359c6.6172-16.301 10.375-33.621 11.113-51.199h27.441zm30.719-71.68c0 8.1484-3.2344 15.965-8.9961 21.723-5.7617 5.7617-13.574 9-21.723 9h-27.289v-29.695l2.3047-1.8438c10.711-8.5273 16.934-21.484 16.895-35.176v-16.023c-0.015624-11.832-1.2148-23.633-3.582-35.227h11.57c8.1484 0 15.961 3.2344 21.723 8.9961s8.9961 13.574 8.9961 21.723z"/>
</svg>
