<?xml version="1.0" encoding="UTF-8"?>
<svg width="512pt" height="512pt" version="1.1" viewBox="0 0 512 512" xmlns="http://www.w3.org/2000/svg">
 <g>
  <path d="m380 416c-0.97656 0-1.9453-0.17578-2.8711-0.52734l-104-40c-3.0898-1.1914-5.1289-4.1602-5.1289-7.4727s2.0391-6.2812 5.1289-7.4727l104-40c1.8555-0.70312 3.8867-0.70312 5.7539 0l104 40c3.0781 1.1914 5.1172 4.1602 5.1172 7.4727s-2.0391 6.2812-5.1289 7.4727l-104 40c-0.92578 0.35156-1.8945 0.52734-2.8711 0.52734zm-81.711-48 81.711 31.434 81.711-31.434-81.711-31.434z"/>
  <path d="m380 464c-0.97656 0-1.9453-0.17578-2.8711-0.52734l-104-40c-3.0898-1.1914-5.1289-4.1602-5.1289-7.4727s2.0391-6.2812 5.1289-7.4727l62.391-24c4.1289-1.5859 8.7539 0.47266 10.344 4.5938 1.5859 4.1289-0.48047 8.7617-4.5938 10.344l-42.988 16.535 81.719 31.434 81.711-31.434-43-16.527c-4.1211-1.5859-6.1758-6.2148-4.5938-10.344 1.5859-4.1289 6.207-6.1758 10.344-4.5938l62.414 24c3.0859 1.1836 5.125 4.1523 5.125 7.4648s-2.0391 6.2812-5.1289 7.4727l-104 40c-0.92578 0.35156-1.8945 0.52734-2.8711 0.52734z"/>
  <path d="m380 512c-0.97656 0-1.9453-0.17578-2.8711-0.52734l-104-40c-3.0898-1.1914-5.1289-4.1602-5.1289-7.4727s2.0391-6.2812 5.1289-7.4727l62.391-24c4.1289-1.5742 8.7539 0.47266 10.344 4.5938 1.5859 4.1289-0.48047 8.7617-4.5938 10.344l-42.988 16.535 81.719 31.434 81.711-31.434-43-16.527c-4.1211-1.5859-6.1758-6.2148-4.5938-10.344 1.5859-4.1289 6.207-6.168 10.344-4.5938l62.414 24c3.0859 1.1836 5.125 4.1523 5.125 7.4648s-2.0391 6.2812-5.1289 7.4727l-104 40c-0.92578 0.35156-1.8945 0.52734-2.8711 0.52734z"/>
  <path d="m220 64c-4.4258 0-8-3.5742-8-8v-48c0-4.4258 3.5742-8 8-8s8 3.5742 8 8v48c0 4.4258-3.5742 8-8 8z"/>
  <path d="m300 16h-80c-4.4258 0-8-3.5742-8-8s3.5742-8 8-8h80c4.4258 0 8 3.5742 8 8s-3.5742 8-8 8z"/>
  <path d="m300 64c-4.4258 0-8-3.5742-8-8v-48c0-4.4258 3.5742-8 8-8s8 3.5742 8 8v48c0 4.4258-3.5742 8-8 8z"/>
  <path d="m300 40h-80c-4.4258 0-8-3.5742-8-8s3.5742-8 8-8h80c4.4258 0 8 3.5742 8 8s-3.5742 8-8 8z"/>
  <path d="m324 128h-128c-4.4258 0-8-3.5742-8-8s3.5742-8 8-8h128c4.4258 0 8 3.5742 8 8s-3.5742 8-8 8z"/>
  <path d="m324 176h-128c-4.4258 0-8-3.5742-8-8s3.5742-8 8-8h128c4.4258 0 8 3.5742 8 8s-3.5742 8-8 8z"/>
  <path d="m364 240h-216c-15.922 0-24-10.77-24-32v-128c0-17.648 14.352-32 32-32h208c17.648 0 32 14.352 32 32v128c0 17.648-14.352 32-32 32zm-208-176c-8.8242 0-16 7.1758-16 16v128c0 16 4.4414 16 8 16h216c8.8242 0 16-7.1758 16-16v-128c0-8.8242-7.1758-16-16-16z"/>
  <path d="m260 280c-4.4258 0-8-3.5742-8-8v-40c0-4.4258 3.5742-8 8-8s8 3.5742 8 8v40c0 4.4258-3.5742 8-8 8z"/>
  <path d="m380 280h-120c-4.4258 0-8-3.5742-8-8s3.5742-8 8-8h120c4.4258 0 8 3.5742 8 8s-3.5742 8-8 8z"/>
  <path d="m380 304c-4.4258 0-8-3.5742-8-8v-24c0-4.4258 3.5742-8 8-8s8 3.5742 8 8v24c0 4.4258-3.5742 8-8 8z"/>
  <path d="m132 416c-0.97656 0-1.9453-0.17578-2.8711-0.52734l-104-40c-3.0898-1.1914-5.1289-4.1602-5.1289-7.4727s2.0391-6.2812 5.1289-7.4727l104-40c1.8555-0.70312 3.8867-0.70312 5.7539 0l104 40c3.0781 1.1914 5.1172 4.1602 5.1172 7.4727s-2.0391 6.2812-5.1289 7.4727l-104 40c-0.92578 0.35156-1.8945 0.52734-2.8711 0.52734zm-81.711-48 81.711 31.434 81.711-31.434-81.711-31.434z"/>
  <path d="m132 464c-0.97656 0-1.9453-0.17578-2.8711-0.52734l-104-40c-3.0898-1.1914-5.1289-4.1602-5.1289-7.4727s2.0391-6.2812 5.1289-7.4727l62.414-24c4.1211-1.5859 8.7539 0.47266 10.344 4.5938 1.5859 4.1289-0.48047 8.7617-4.5938 10.344l-43.004 16.535 81.711 31.434 81.719-31.434-42.984-16.527c-4.1211-1.5859-6.1758-6.2148-4.5938-10.344 1.5938-4.1289 6.1992-6.1758 10.344-4.5938l62.391 24c3.0859 1.1836 5.125 4.1523 5.125 7.4648s-2.0391 6.2812-5.1289 7.4727l-104 40c-0.92578 0.35156-1.8945 0.52734-2.8711 0.52734z"/>
  <path d="m132 512c-0.97656 0-1.9453-0.17578-2.8711-0.52734l-104-40c-3.0898-1.1914-5.1289-4.1602-5.1289-7.4727s2.0391-6.2812 5.1289-7.4727l62.414-24c4.1211-1.5742 8.7539 0.47266 10.344 4.5938 1.5859 4.1289-0.48047 8.7617-4.5938 10.344l-43.004 16.535 81.711 31.434 81.719-31.434-42.984-16.527c-4.1211-1.5859-6.1758-6.2148-4.5938-10.344 1.5938-4.1289 6.1992-6.168 10.344-4.5938l62.391 24c3.0859 1.1836 5.125 4.1523 5.125 7.4648s-2.0391 6.2812-5.1289 7.4727l-104 40c-0.92578 0.35156-1.8945 0.52734-2.8711 0.52734z"/>
  <path d="m260 280h-128c-4.4258 0-8-3.5742-8-8s3.5742-8 8-8h128c4.4258 0 8 3.5742 8 8s-3.5742 8-8 8z"/>
  <path d="m132 304c-4.4258 0-8-3.5742-8-8v-24c0-4.4258 3.5742-8 8-8s8 3.5742 8 8v24c0 4.4258-3.5742 8-8 8z"/>
 </g>
</svg>
