<?xml version="1.0" encoding="UTF-8"?>
<svg width="1200pt" height="1200pt" version="1.1" viewBox="0 0 1200 1200" xmlns="http://www.w3.org/2000/svg">
 <g fill="#2095f3">
  <path d="m859.7 519.4c5.375 5.375 14.328 8.957 28.656 14.328v-66.27c-10.746 1.793-19.703 5.375-26.867 10.746-12.535 10.75-10.746 32.242-1.7891 41.195z"/>
  <path d="m943.88 601.79c-5.375-5.375-16.121-10.746-30.449-14.328v68.059c12.539-1.793 21.492-5.375 28.656-10.746 16.121-12.539 12.539-34.031 1.793-42.984z"/>
  <path d="m1189.3 535.52c-16.121-164.78-162.98-279.4-322.39-261.49-12.539 1.793-23.285 3.582-35.82 5.375 1.793 60.895-5.375 134.33-51.941 177.31-16.121 64.477-46.566 128.96-85.969 179.11v12.539h105.67l23.285-28.656c21.492 17.91 42.984 30.449 66.27 32.238v-73.434c-28.656-7.1641-50.148-16.121-62.688-26.867-25.074-21.492-30.449-73.434 3.582-103.88 14.328-14.328 35.82-21.492 59.105-23.285v-19.703h25.07v19.703c28.656 1.793 53.73 12.539 78.805 28.656l-25.074 35.82c-16.121-12.539-35.82-19.703-53.73-21.492v71.641h1.793c28.656 7.1641 50.148 16.121 64.477 26.867 26.867 21.492 30.449 75.223-3.582 105.67-7.1641 5.375-14.328 10.746-21.492 14.328 44.777 30.449 78.805 77.016 93.133 132.54 96.715-57.316 154.03-166.57 141.49-282.99z"/>
  <path d="m829.25 685.97h-136.12v5.375c0 100.3-80.598 180.89-180.89 180.89s-180.89-80.598-180.89-180.89v-5.375h-134.33c-103.88 0-188.06 84.18-188.06 188.06v297.31c0 8.957 8.957 17.91 17.91 17.91h139.7l-0.003906-205.97c0-8.957 7.1641-17.91 17.91-17.91 8.957 0 17.91 8.957 17.91 17.91v205.97h621.49v-205.97c0-8.957 7.1641-17.91 17.91-17.91 8.957 0 17.91 8.957 17.91 17.91v205.97h139.7c8.957 0 17.91-8.957 17.91-17.91v-297.31c0-103.88-84.18-188.06-188.06-188.06z"/>
  <path d="m277.61 438.8c16.121 69.852 48.359 139.7 91.344 188.06v64.477c0 80.598 64.477 145.07 145.07 145.07s145.07-64.477 145.07-145.07v-66.27c42.984-51.941 75.223-121.79 89.551-186.27 71.641-53.73 42.984-202.39 41.195-248.96-3.582-114.62-137.91-177.31-268.66-177.31-62.688 0-146.87 21.492-175.52 77.016-39.402 10.746-111.04 44.777-120 145.07-1.793 16.125-23.285 162.99 51.941 204.18zm345.67 252.54c0 60.895-48.359 109.25-109.25 109.25s-109.25-48.359-109.25-109.25v-28.656s1.793 0 1.793 1.793c75.223 59.105 152.24 51.941 216.71-3.582zm-241.79-460.3c94.926 69.852 257.91 16.121 288.36 26.867 42.984 14.328 51.941 78.805 51.941 125.38-3.582 73.434-42.984 171.94-100.3 232.84-68.059 64.477-137.91 85.969-218.51-3.582-46.566-51.941-84.18-130.75-94.926-207.76 1.7891-96.719 32.234-75.227 73.43-173.73z"/>
 </g>
</svg>
