<?xml version="1.0" encoding="UTF-8"?>
<svg width="512pt" height="512pt" version="1.1" viewBox="0 0 512 512" xmlns="http://www.w3.org/2000/svg">
 <path d="m258.52 114.58c-1.5625-0.88281-3.4766-0.88281-5.0391 0l-117.76 66.559c-1.6055 0.91016-2.5977 2.6133-2.5977 4.4609v136.96c0 1.832 0.97656 3.5234 2.5625 4.4375l117.76 67.84c1.5664 0.90234 3.4961 0.91406 5.0742 0.023437l117.76-66.562c1.6055-0.90625 2.5977-2.6094 2.5977-4.457v-138.24c0-1.8477-0.99219-3.5508-2.5977-4.4609zm-60.531 111.35-54.629-31.473v119.09l54.594-32.57c-3.9844-8.3438-6.2109-17.684-6.2109-27.531 0-9.8516 2.2461-19.18 6.2461-27.512zm52.891 155.61-102.52-59.059 54.727-32.652c10.68 15.426 27.977 25.938 47.789 27.426zm10.242 0.082031v-64.406c19.578-1.6289 36.652-12.078 47.242-27.344l55.297 33.793zm107.52-66.914-55.129-33.691c3.9922-8.3555 6.2305-17.711 6.2305-27.578 0-9.7695-2.1719-19.035-6.0625-27.32l54.961-31.664zm-5.2109-129.07-54.828 31.586c-10.555-15.457-27.707-26.02-47.48-27.586v-61.824zm-112.55-57.824v61.824c-19.723 1.5625-37.02 12.055-47.73 27.441l-54.578-31.441z" fill="#fff" fill-rule="evenodd"/>
</svg>
